<mxfile host="app.diagrams.net" modified="2023-08-16T11:56:47.317Z" agent="Mozilla/5.0 (Windows NT 10.0; Win64; x64) AppleWebKit/537.36 (KHTML, like Gecko) Chrome/115.0.0.0 Safari/537.36" version="21.5.1" etag="EhyJzvBw-3HFL71An1-m" type="github">
  <diagram name="Страница 1" id="RkU0lMpHBRL6FafO1AgD">
    <mxGraphModel>
      <root>
        <mxCell id="0" />
        <mxCell id="1" parent="0" />
      </root>
    </mxGraphModel>
  </diagram>
</mxfile>
